#!OML:ASF I:\Actors\actors\Patient Classification 1\Patient 1\Session 1\Subject1.ASF
:FULLY-SPECIFIED
:DEGREES
1121
root 0.793582 17.7921 8.33228 8.12336 -0.268443 -8.95818
lowerback 0.439113 1.15845 5.14378
upperback -5.90138 1.90394 2.73776
thorax -6.32708 0.756195 -0.132077
lowerneck -17.7766 -4.58934 -2.38061
upperneck 20.8721 -7.53996 7.28997
head 9.96581 -2.84553 1.89836
rclavicle 1.22004e-014 -2.16675e-014
rhumerus -25.2349 36.9322 -99.4594
rradius 130.689
rwrist 4.55415
rhand -13.1506 -41.0014
rfingers 7.12502
rthumb 12.948 -70.5796
lclavicle 1.22004e-014 -2.16675e-014
lhumerus -33.1492 -44.5431 103.073
lradius 125.934
lwrist 18.1873
lhand -40.3995 -41.6246
lfingers 7.12502
lthumb -13.3528 -12.0725
rfemur -8.66593 19.8981 25.1994
rtibia 10.1023
rfoot -12.7536 -17.0681
rtoes -3.07404
lfemur -1.61912 -32.5978 -7.05744
ltibia 0.339593
lfoot -12.7813 40.8704
ltoes -1.88005
1122
root 0.803095 17.7789 8.32293 7.79844 0.0970988 -9.57961
lowerback 0.749318 1.04609 5.85611
upperback -5.80914 1.81216 2.91964
thorax -6.40417 0.677827 -0.337935
lowerneck -17.6448 -4.69104 -2.26388
upperneck 20.8551 -7.68309 7.16068
head 9.93226 -2.92122 1.81536
rclavicle 1.29831e-015 -1.89839e-014
rhumerus -24.9342 36.3863 -99.104
rradius 130.323
rwrist 4.14914
rhand -13.0263 -41.242
rfingers 7.12502
rthumb 13.0679 -70.8126
lclavicle 1.29831e-015 -1.89839e-014
lhumerus -33.4021 -44.7601 103.361
lradius 125.644
lwrist 18.3642
lhand -40.2757 -40.8461
lfingers 7.12502
lthumb -13.2335 -11.2862
rfemur -8.27927 19.5378 26.0411
rtibia 10.0955
rfoot -12.7655 -16.9911
rtoes -3.05384
lfemur -1.41606 -32.4639 -6.45343
ltibia 0.360957
lfoot -12.4095 40.458
ltoes -2.55367
1123
root 0.81618 17.7635 8.30896 7.36025 0.503738 -10.5506
lowerback 1.29784 0.860373 7.03257
upperback -5.70794 1.6776 3.21321
thorax -6.61262 0.5535 -0.68287
lowerneck -17.7222 -4.65848 -2.1503
upperneck 21.0287 -7.62009 6.90558
head 9.98829 -2.9058 1.71565
rclavicle -1.11816e-015 3.24019e-014
rhumerus -24.705 36.2526 -98.9417
rradius 129.808
rwrist 3.97535
rhand -12.9069 -41.6527
rfingers 7.12502
rthumb 13.1829 -71.2159
lclavicle -1.11816e-015 3.24019e-014
lhumerus -33.3937 -44.6018 103.506
lradius 125.209
lwrist 18.4619
lhand -40.5318 -39.9599
lfingers 7.12502
lthumb -13.4804 -10.4162
rfemur -7.81272 19.042 27.3239
rtibia 10.178
rfoot -12.8426 -16.7861
rtoes -2.8162
lfemur -1.10765 -32.087 -5.48131
ltibia 0.339899
lfoot -11.7915 39.8392
ltoes -3.85774
1124
root 0.816688 17.7622 8.30111 7.28415 0.64936 -10.595
lowerback 1.47912 0.752776 7.06963
upperback -5.68537 1.5566 3.28773
thorax -6.70314 0.491794 -0.619777
lowerneck -17.8842 -4.55575 -2.09939
upperneck 21.1012 -7.44934 6.72363
head 10.0249 -2.83805 1.66556
rclavicle 2.14315e-015 4.82053e-014
rhumerus -24.8126 36.4266 -99.0683
rradius 129.427
rwrist 4.01174
rhand -13.0088 -41.8761
rfingers 7.12502
rthumb 13.0847 -71.4456
lclavicle 2.14315e-015 4.82053e-014
lhumerus -33.3789 -44.3408 103.702
lradius 124.821
lwrist 18.5038
lhand -40.8732 -39.5007
lfingers 7.12502
lthumb -13.8094 -9.9791
rfemur -7.85732 18.9214 27.377
rtibia 10.3629
rfoot -12.9724 -16.7825
rtoes -2.4791
lfemur -1.19738 -31.9408 -5.38126
ltibia 0.418015
lfoot -11.4881 39.6009
ltoes -4.5564
1125
root 0.809963 17.7686 8.29865 7.41041 0.582231 -10.111
lowerback 1.45509 0.759368 6.50915
upperback -5.70438 1.52844 3.14834
thorax -6.71316 0.50314 -0.453577
lowerneck -17.7867 -4.45939 -2.06443
upperneck 20.6994 -7.29865 6.75721
head 9.8562 -2.77515 1.69384
rclavicle -3.27995e-015 -2.88238e-015
rhumerus -25.2278 36.6153 -99.4702
rradius 129.281
rwrist 4.13642
rhand -13.5717 -41.7058
rfingers 7.12502
rthumb 12.5421 -71.3094
lclavicle -3.27995e-015 -2.88238e-015
lhumerus -33.5833 -44.2386 104.004
lradius 124.576
lwrist 18.2314
lhand -40.8723 -39.8458
lfingers 7.12502
lthumb -13.8085 -10.3241
rfemur -8.1494 19.0362 26.7455
rtibia 10.5643
rfoot -13.0397 -16.892
rtoes -2.61047
lfemur -1.44248 -31.9159 -5.81017
ltibia 0.53852
lfoot -11.6772 39.5631
ltoes -4.07348
1126
root 0.815305 17.7592 8.29052 7.11674 0.646099 -10.9051
lowerback 1.97695 0.735294 7.5572
upperback -5.61919 1.60409 3.24816
thorax -6.91137 0.482308 -0.94109
lowerneck -17.6623 -4.42087 -2.13255
upperneck 20.1904 -7.23836 6.98136
head 9.66294 -2.74393 1.79216
rclavicle 1.47846e-014 1.5207e-014
rhumerus -25.6377 36.8602 -99.9213
rradius 129.161
rwrist 4.36732
rhand -14.1633 -41.3063
rfingers 7.12502
rthumb 11.9716 -70.944
lclavicle 1.47846e-014 1.5207e-014
lhumerus -34.0023 -44.2296 104.351
lradius 124.418
lwrist 17.6316
lhand -40.5616 -40.6045
lfingers 7.12502
lthumb -13.5091 -11.0627
rfemur -7.85415 18.8477 27.7982
rtibia 10.67
rfoot -13.0064 -16.7432
rtoes -3.16569
lfemur -1.10045 -31.3368 -4.97978
ltibia 0.40191
lfoot -11.5906 38.983
ltoes -4.05658
1127
root 0.799023 17.7761 8.29805 7.68957 0.214866 -9.35487
lowerback 1.44675 0.864128 5.71658
upperback -5.72467 1.60916 2.79385
thorax -6.72498 0.574093 -0.390996
lowerneck -17.7056 -4.36624 -2.04161
upperneck 20.0111 -7.18487 7.03409
head 9.6045 -2.70993 1.80171
rclavicle -5.31749e-015 2.38542e-015
rhumerus -26.1339 37.1714 -100.434
rradius 128.916
rwrist 4.76277
rhand -14.7092 -40.606
rfingers 7.12502
rthumb 11.4452 -70.2735
lclavicle -5.31749e-015 2.38542e-015
lhumerus -34.5595 -44.2039 104.675
lradius 124.253
lwrist 16.9629
lhand -39.8119 -41.9293
lfingers 7.12502
lthumb -12.7864 -12.3409
rfemur -8.67088 19.3957 25.7649
rtibia 10.8792
rfoot -13.0556 -17.0471
rtoes -3.0235
lfemur -1.70796 -31.5702 -6.49978
ltibia 0.557056
lfoot -12.0104 39.4802
ltoes -3.12704
1128
root 0.796646 17.7738 8.29966 7.76391 0.0329117 -9.32779
lowerback 1.51028 0.934912 5.73679
upperback -5.74995 1.70601 2.69515
thorax -6.7806 0.616052 -0.513225
lowerneck -17.7792 -4.28089 -1.76513
upperneck 20.0928 -7.10915 6.86721
head 9.62591 -2.66824 1.7081
rclavicle -2.47487e-014 -2.28602e-014
rhumerus -26.8867 37.5269 -101.085
rradius 128.533
rwrist 5.182
rhand -15.5295 -39.5163
rfingers 7.12502
rthumb 10.6541 -69.2262
lclavicle -2.47487e-014 -2.28602e-014
lhumerus -35.2687 -44.132 105.046
lradius 123.912
lwrist 16.0169
lhand -38.7886 -44.2938
lfingers 7.12502
lthumb -11.7998 -14.6462
rfemur -8.78944 19.541 25.7282
rtibia 10.9867
rfoot -13.0953 -17.0212
rtoes -2.94796
lfemur -1.6324 -31.5785 -6.54418
ltibia 0.439135
lfoot -12.1153 39.6536
ltoes -2.9652
1129
root 0.810491 17.7521 8.29471 7.35396 0.098795 -10.7334
lowerback 2.13131 0.925663 7.5207
upperback -5.64701 1.85772 2.96157
thorax -7.00284 0.596518 -1.24359
lowerneck -17.8727 -4.18461 -1.57864
upperneck 20.23 -6.99356 6.68417
head 9.67129 -2.61485 1.6291
rclavicle 2.65874e-015 -2.92213e-014
rhumerus -27.6812 37.9002 -101.693
rradius 127.944
rwrist 5.61565
rhand -16.1412 -38.1253
rfingers 7.12502
rthumb 10.0639 -67.8646
lclavicle 2.65874e-015 -2.92213e-014
lhumerus -36.0679 -43.9119 105.456
lradius 123.286
lwrist 14.5653
lhand -38.2019 -46.4773
lfingers 7.12502
lthumb -11.234 -16.7981
rfemur -8.21641 19.2369 27.569
rtibia 10.9633
rfoot -13.0722 -16.6284
rtoes -3.15641
lfemur -0.886069 -31.355 -5.2315
ltibia 0.0746641
lfoot -11.9478 39.4944
ltoes -3.31655
1130
root 0.796828 17.7602 8.30802 7.83371 -0.308808 -9.42454
lowerback 1.55783 1.03353 5.8711
upperback -5.70332 1.84371 2.65822
thorax -6.74723 0.676896 -0.636881
lowerneck -18.011 -4.10756 -1.63173
upperneck 20.3754 -6.87307 6.64634
head 9.74253 -2.56009 1.63999
rclavicle 2.24254e-014 6.36111e-015
rhumerus -28.6255 38.1453 -102.334
rradius 127.204
rwrist 6.23975
rhand -16.2112 -36.5758
rfingers 7.12502
rthumb 9.99645 -66.3184
lclavicle 2.24254e-014 6.36111e-015
lhumerus -36.8591 -43.4497 105.795
lradius 122.334
lwrist 12.758
lhand -37.8889 -48.2697
lfingers 7.12502
lthumb -10.9321 -18.5743
rfemur -8.83838 19.7476 25.8384
rtibia 11.0162
rfoot -13.0978 -16.8519
rtoes -2.9301
lfemur -1.2837 -31.9577 -6.61188
ltibia 0.171908
lfoot -12.5028 40.3155
ltoes -2.18246
1131
root 0.799178 17.75 8.31303 7.8573 -0.423288 -9.47845
lowerback 1.56515 1.07529 5.94422
upperback -5.65702 1.90094 2.65559
thorax -6.6971 0.702983 -0.684278
lowerneck -18.0769 -4.08924 -1.77727
upperneck 20.4169 -6.84154 6.77858
head 9.77858 -2.5389 1.71369
rclavicle 9.19379e-015 2.10712e-014
rhumerus -29.8836 38.0675 -103.098
rradius 126.515
rwrist 6.84053
rhand -15.9291 -34.9058
rfingers 7.12502
rthumb 10.2686 -64.6351
lclavicle 9.19379e-015 2.10712e-014
lhumerus -37.6972 -42.9302 106.112
lradius 121.121
lwrist 10.8745
lhand -37.5238 -50.1769
lfingers 7.12502
lthumb -10.58 -20.4632
rfemur -8.81983 19.8286 25.8882
rtibia 10.9586
rfoot -13.0805 -16.8003
rtoes -3.01512
lfemur -1.20678 -31.9274 -6.58615
ltibia 0.123022
lfoot -12.5528 40.4013
ltoes -2.09821
1132
root 0.810943 17.7277 8.31319 7.57775 -0.289425 -10.4541
lowerback 2.00141 1.10633 7.21347
upperback -5.57465 2.05356 2.79642
thorax -6.83299 0.711396 -1.25929
lowerneck -18.0012 -4.16541 -1.91423
upperneck 20.3198 -6.96751 7.0486
head 9.75329 -2.58131 1.81322
rclavicle 5.67779e-015 5.74488e-014
rhumerus -31.4237 37.4825 -103.948
rradius 125.952
rwrist 7.06433
rhand -15.4881 -32.8344
rfingers 7.12502
rthumb 10.6939 -62.5422
lclavicle 5.67779e-015 5.74488e-014
lhumerus -38.7634 -42.6058 106.598
lradius 119.806
lwrist 8.9803
lhand -37.4023 -51.8871
lfingers 7.12502
lthumb -10.4628 -22.1675
rfemur -8.32335 19.6223 27.1517
rtibia 10.7561
rfoot -13.0103 -16.5963
rtoes -3.10809
lfemur -0.781204 -31.6527 -5.62451
ltibia -0.0603428
lfoot -12.3593 40.1035
ltoes -2.51632
